#!OML:ASF F:\VICON\USERDATA\INSTALL\Justin_Nancy\Justin_Nancy.ASF
:FULLY-SPECIFIED
:DEGREES
17
root -9.34414 17.3592 -28.116 0.830576 -1.57574 -1.04387
lowerback 6.91519 -2.72191 -2.4086
upperback -1.02357 -3.5833 5.78922
thorax -4.42996 -1.65133 7.83324
lowerneck -9.97238 -0.424174 -12.7146
upperneck 18.7072 0.927707 3.78443
head 7.33764 -0.109393 3.43031
rclavicle -7.48921e-014 4.45278e-014
rhumerus -39.9479 -11.2695 -72.5541
rradius 23.3193
rwrist 12.9688
rhand -16.6874 10.6476
rfingers 7.12502
rthumb 9.53696 -19.1165
lclavicle -7.48921e-014 4.45278e-014
lhumerus -33.0397 11.6322 84.1532
lradius 36.3216
lwrist -4.56041
lhand -17.727 22.6771
lfingers 7.12502
lthumb 8.53375 52.4846
rfemur -18.1866 2.27339 26.4435
rtibia 33.223
rfoot -11.328 -5.40127
rtoes 9.54561
lfemur -14.6055 -0.0957118 -20.144
ltibia 65.9139
lfoot 2.71391 -6.37235
ltoes -8.70799
18
root -9.34704 17.3697 -27.8601 0.875306 -1.99582 -1.32813
lowerback 6.50625 -1.08059 -0.551009
upperback 0.239428 -1.33976 4.12732
thorax -3.29194 -0.630477 4.71972
lowerneck -13.6388 -2.37924 -9.87203
upperneck 19.6414 -1.92693 4.0392
head 8.51508 -1.23568 2.78339
rclavicle 4.87022e-015 -3.97569e-015
rhumerus -38.5431 -17.5404 -73.3757
rradius 24.0144
rwrist 12.9953
rhand -17.1862 12.2021
rfingers 7.12502
rthumb 9.05572 -17.5835
lclavicle 4.87022e-015 -3.97569e-015
lhumerus -29.7595 5.24431 84.8295
lradius 35.3379
lwrist -4.23501
lhand -17.995 25.0285
lfingers 7.12502
lthumb 8.2752 54.8464
rfemur -17.0463 2.53638 26.8346
rtibia 32.7825
rfoot -11.7649 -5.21068
rtoes 6.8538
lfemur -16.435 0.304156 -19.9043
ltibia 66.1765
lfoot 1.98991 -5.84057
ltoes -3.19705
19
root -9.34121 17.3774 -27.614 0.980556 -3.2401 -1.34175
lowerback 6.641 -0.0202487 -0.0151046
upperback 0.896043 0.0726601 3.38134
thorax -2.80449 0.0505914 3.49951
lowerneck -16.4978 -3.16377 -8.40975
upperneck 20.3787 -3.08758 3.98302
head 9.34893 -1.65779 2.37199
rclavicle 8.84592e-015 3.10104e-014
rhumerus -36.7355 -19.6431 -74.4533
rradius 24.4861
rwrist 12.1706
rhand -17.7557 15.3137
rfingers 7.12502
rthumb 8.50607 -14.4949
lclavicle 8.84592e-015 3.10104e-014
lhumerus -28.3048 2.36916 85.1527
lradius 34.7427
lwrist -3.30742
lhand -16.4174 28.4589
lfingers 7.12502
lthumb 9.79743 58.211
rfemur -16.0898 3.14069 26.8393
rtibia 32.3961
rfoot -12.3079 -4.57881
rtoes 4.57974
lfemur -18.2797 1.28013 -20.0511
ltibia 66.2558
lfoot -1.0293 -3.95303
ltoes -8.61044
20
root -9.34437 17.3922 -27.3701 0.998567 -3.81474 -1.72908
lowerback 6.9264 0.3436 0.396833
upperback 1.118 0.583335 3.2777
thorax -2.76048 0.298409 3.11168
lowerneck -17.67 -3.33575 -7.98996
upperneck 20.6162 -3.3613 4.06291
head 9.65888 -1.7328 2.28698
rclavicle 1.16289e-014 -2.38542e-015
rhumerus -35.3506 -19.6961 -75.2163
rradius 24.8581
rwrist 11.113
rhand -18.0027 17.4119
rfingers 7.12502
rthumb 8.26769 -12.4064
lclavicle 1.16289e-014 -2.38542e-015
lhumerus -28.1445 1.5156 85.4425
lradius 33.9852
lwrist -3.00568
lhand -14.5463 31.5586
lfingers 7.12502
lthumb 11.6023 61.2174
rfemur -14.9921 3.73779 27.3411
rtibia 32.0908
rfoot -12.6908 -5.28181
rtoes 2.88613
lfemur -20.1423 1.65095 -19.6293
ltibia 66.2072
lfoot -2.66362 -2.7265
ltoes -7.9115
21
root -9.35767 17.3935 -27.1249 1.03839 -3.43659 -1.92459
lowerback 7.02744 0.151442 0.409224
upperback 1.09282 0.335531 3.40729
thorax -2.8309 0.175918 3.2631
lowerneck -17.7081 -3.23874 -8.03841
upperneck 20.6953 -3.18323 3.94979
head 9.6813 -1.6676 2.28024
rclavicle -1.82882e-014 6.36111e-015
rhumerus -34.332 -18.7471 -75.7238
rradius 25.2906
rwrist 10.0187
rhand -17.8351 17.4133
rfingers 7.12502
rthumb 8.42951 -12.3985
lclavicle -1.82882e-014 6.36111e-015
lhumerus -28.7833 1.59274 85.6933
lradius 33.2325
lwrist -3.2813
lhand -13.9654 31.5953
lfingers 7.12502
lthumb 12.1624 61.2217
rfemur -13.9442 4.01407 27.7334
rtibia 31.8723
rfoot -13.0315 -7.06589
rtoes 1.63187
lfemur -21.9934 1.23445 -19.3212
ltibia 65.9548
lfoot -4.23058 -1.88999
ltoes -7.34978
22
root -9.36607 17.3755 -26.8804 1.28112 -3.29803 -2.04843
lowerback 6.88662 -0.0624542 0.279153
upperback 0.930656 0.0493323 3.62155
thorax -2.90483 0.0372841 3.58734
lowerneck -17.2576 -3.2991 -8.37036
upperneck 20.4073 -3.15885 3.73858
head 9.50002 -1.70761 2.26488
rclavicle -1.20265e-014 1.27222e-014
rhumerus -33.4404 -16.929 -76.4371
rradius 26.1727
rwrist 9.05878
rhand -17.7905 15.7871
rfingers 7.12502
rthumb 8.47256 -14.0229
lclavicle -1.20265e-014 1.27222e-014
lhumerus -29.745 2.05535 85.9836
lradius 32.7023
lwrist -3.52878
lhand -14.232 30.9118
lfingers 7.12502
lthumb 11.9054 60.5533
rfemur -13.116 4.26947 27.9945
rtibia 31.6686
rfoot -13.7195 -8.43252
rtoes 0.172957
lfemur -23.9392 0.950506 -19.1583
ltibia 65.5265
lfoot -5.40204 -0.976012
ltoes -5.65905
23
root -9.37123 17.3533 -26.6414 1.46309 -3.62001 -2.51293
lowerback 6.9114 -0.13418 0.530189
upperback 0.760318 -0.0136299 3.85526
thorax -3.09148 0.00667743 3.69715
lowerneck -17.0076 -2.90349 -9.03078
upperneck 20.6775 -2.61313 4.40485
head 9.52986 -1.4382 2.68626
rclavicle 1.39149e-015 -3.33958e-014
rhumerus -32.6497 -15.0202 -77.2313
rradius 27.2378
rwrist 8.51321
rhand -18.1457 14.0479
rfingers 7.12502
rthumb 8.12971 -15.7757
lclavicle 1.39149e-015 -3.33958e-014
lhumerus -30.6861 2.33982 86.2095
lradius 32.1391
lwrist -3.49045
lhand -14.3512 31.4931
lfingers 7.12502
lthumb 11.7904 61.1412
rfemur -12.1976 4.78224 28.6186
rtibia 31.4943
rfoot -14.8957 -8.3428
rtoes 0.65221
lfemur -25.7288 1.06922 -18.6423
ltibia 64.8955
lfoot -5.70784 0.0498571
ltoes -2.1463
24
root -9.37101 17.328 -26.3941 1.38461 -4.13033 -3.01906
lowerback 7.12859 -0.158491 0.927792
upperback 0.607187 0.00324552 4.03806
thorax -3.37315 0.0134743 3.66557
lowerneck -15.8262 -2.77399 -9.33767
upperneck 19.9163 -2.46824 4.45586
head 9.04267 -1.38923 2.76899
rclavicle 2.48481e-015 -2.8625e-014
rhumerus -32.0897 -13.1495 -77.9252
rradius 28.2186
rwrist 7.88919
rhand -18.22 12.3024
rfingers 7.12502
rthumb 8.05798 -17.524
lclavicle 2.48481e-015 -2.8625e-014
lhumerus -31.8239 2.61969 86.344
lradius 31.5375
lwrist -3.53576
lhand -14.4505 30.9884
lfingers 7.12502
lthumb 11.6947 60.642
rfemur -10.9493 5.37111 29.2903
rtibia 31.2833
rfoot -15.7787 -8.00904
rtoes 2.10247
lfemur -27.0766 1.28053 -18.0909
ltibia 63.9864
lfoot -6.47667 1.14198
ltoes -1.63902
25
root -9.3632 17.3113 -26.1321 1.35721 -4.61302 -3.28583
lowerback 7.18101 -0.0741674 1.27829
upperback 0.567384 0.146374 4.02527
thorax -3.45112 0.0799083 3.44037
lowerneck -15.5676 -2.73845 -9.39244
upperneck 20.0077 -2.44797 4.51955
head 9.02666 -1.38162 2.80489
rclavicle -3.37934e-015 -1.59028e-014
rhumerus -31.3065 -12.0364 -78.5018
rradius 28.966
rwrist 7.14746
rhand -18.1383 10.4493
rfingers 7.12502
rthumb 8.13682 -19.374
lclavicle -3.37934e-015 -1.59028e-014
lhumerus -32.7461 2.50194 86.4628
lradius 31.1528
lwrist -3.97926
lhand -14.7271 29.248
lfingers 7.12502
lthumb 11.4279 58.9166
rfemur -9.67153 5.76371 29.6455
rtibia 30.8891
rfoot -16.0731 -8.39262
rtoes 2.49085
lfemur -28.3415 1.26584 -17.8167
ltibia 62.7494
lfoot -7.08747 2.33593
ltoes -0.482368
26
root -9.3569 17.2928 -25.876 1.41655 -5.12813 -3.47404
lowerback 7.33115 0.04148 1.44359
upperback 0.437335 0.326726 4.06625
thorax -3.67892 0.168566 3.37375
lowerneck -15.356 -2.71027 -9.57168
upperneck 20.1035 -2.41274 4.63061
head 9.02207 -1.37112 2.87958
rclavicle -5.86415e-015 -4.77083e-015
rhumerus -30.7495 -10.8588 -78.8563
rradius 29.8592
rwrist 6.38635
rhand -17.8553 9.26849
rfingers 7.12502
rthumb 8.41001 -20.5441
lclavicle -5.86415e-015 -4.77083e-015
lhumerus -33.7069 2.65052 86.5812
lradius 30.8438
lwrist -5.11578
lhand -15.5101 28.3513
lfingers 7.12502
lthumb 10.6727 58.0602
rfemur -8.428 6.24872 29.925
rtibia 30.3415
rfoot -16.2962 -8.91377
rtoes 2.12447
lfemur -29.5846 1.37792 -17.5872
ltibia 61.2326
lfoot -7.99382 3.00832
ltoes -0.0187699
27
root -9.35318 17.2756 -25.6163 1.44192 -5.3371 -3.73252
lowerback 7.42967 0.0782364 1.73062
upperback 0.459278 0.402277 4.06137
thorax -3.7131 0.201136 3.19886
lowerneck -15.3162 -2.81697 -9.34637
upperneck 19.6772 -2.55783 4.38278
head 8.87374 -1.44136 2.73309
rclavicle 6.95746e-016 -3.18055e-014
rhumerus -29.9779 -9.90256 -79.282
rradius 30.7185
rwrist 5.61245
rhand -17.3202 9.69597
rfingers 7.12502
rthumb 8.92641 -20.0952
lclavicle 6.95746e-016 -3.18055e-014
lhumerus -34.2548 2.72922 86.6483
lradius 30.3812
lwrist -6.07131
lhand -15.4206 29.6174
lfingers 7.12502
lthumb 10.759 59.3218
rfemur -7.01154 6.54625 30.3278
rtibia 29.6804
rfoot -16.7183 -9.5059
rtoes 1.02975
lfemur -30.6342 1.2975 -17.226
ltibia 59.4801
lfoot -9.58357 3.71303
ltoes -2.54558
28
root -9.35168 17.2613 -25.3558 1.3749 -5.30177 -3.9866
lowerback 7.5259 0.0584814 2.13936
upperback 0.538619 0.406534 3.94824
thorax -3.68105 0.195319 2.84921
lowerneck -15.3913 -2.70678 -9.16631
upperneck 19.6089 -2.47027 4.51347
head 8.85482 -1.37096 2.7583
rclavicle -2.28602e-015 6.36111e-015
rhumerus -29.1469 -9.10104 -79.8394
rradius 31.5638
rwrist 4.76332
rhand -16.6423 11.4737
rfingers 7.12502
rthumb 9.58052 -18.2885
lclavicle -2.28602e-015 6.36111e-015
lhumerus -34.6277 2.32565 86.7208
lradius 29.8
lwrist -6.2944
lhand -13.4419 29.8335
lfingers 7.12502
lthumb 12.6672 59.4293
rfemur -5.48267 6.38468 30.6967
rtibia 28.9517
rfoot -17.2735 -9.72605
rtoes 1.01752
lfemur -31.5151 1.01922 -16.824
ltibia 57.4978
lfoot -10.5855 4.30214
ltoes -6.84533
29
root -9.34982 17.2428 -25.0989 1.41951 -5.44642 -4.31011
lowerback 7.93004 -1.91079 0.207944
upperback -1.13263 -2.2032 6.27255
thorax -5.40669 -1.00117 6.77668
lowerneck -9.77919 -0.140643 -13.0156
upperneck 18.6161 1.24838 4.25416
head 7.23581 0.0668643 3.65988
rclavicle -2.61899e-014 2.8625e-014
rhumerus -30.6756 1.2836 -79.9548
rradius 32.7756
rwrist 2.68193
rhand -16.6132 10.0519
rfingers 7.12502
rthumb 9.60855 -19.709
lclavicle -2.61899e-014 2.8625e-014
lhumerus -40.3924 10.2319 86.5181
lradius 30.3152
lwrist -7.55177
lhand -12.3143 28.574
lfingers 7.12502
lthumb 13.7541 58.0994
rfemur -4.09233 6.07743 31.0666
rtibia 28.1555
rfoot -17.757 -9.59856
rtoes 1.65245
lfemur -32.394 0.867898 -16.3228
ltibia 55.3331
lfoot -10.9737 4.85986
ltoes -10.1191
30
root -9.34682 17.2201 -24.8405 1.58218 -5.8051 -4.72758
lowerback 7.6631 0.238864 2.8166
upperback 0.645824 0.709583 4.06477
thorax -3.65061 0.335483 2.55681
lowerneck -16.3078 -2.75536 -9.37218
upperneck 20.2754 -2.48043 4.8415
head 9.25961 -1.35659 2.91077
rclavicle 2.28602e-015 -1.27222e-014
rhumerus -27.4236 -6.66338 -80.7059
rradius 33.8669
rwrist 3.18245
rhand -17.0823 5.67006
rfingers 7.12502
rthumb 9.1559 -24.1112
lclavicle 2.28602e-015 -1.27222e-014
lhumerus -35.53 1.9447 87.1627
lradius 29.0386
lwrist -7.33292
lhand -11.8319 28.2286
lfingers 7.12502
lthumb 14.219 57.7219
rfemur -2.78141 5.89063 31.512
rtibia 27.2586
rfoot -17.8474 -9.74405
rtoes 1.77491
lfemur -33.1874 0.763146 -15.6636
ltibia 52.9846
lfoot -11.1781 5.74116
ltoes -8.06013
